<?xml version="1.0" standalone="no"?>
<!DOCTYPE svg PUBLIC "-//W3C//DTD SVG 20010904//EN"
 "http://www.w3.org/TR/2001/REC-SVG-20010904/DTD/svg10.dtd">
<svg version="1.0" xmlns="http://www.w3.org/2000/svg"
 width="700.000000pt" height="700.000000pt" viewBox="0 0 700.000000 700.000000"
 preserveAspectRatio="xMidYMid meet">
<metadata>
Created by potrace 1.14, written by Peter Selinger 2001-2017
</metadata>
<g transform="translate(0.000000,700.000000) scale(0.100000,-0.100000)"
fill="#000000" stroke="none">
<path d="M3445 6196 c-72 -23 -3139 -1569 -3162 -1594 -49 -53 -21 -110 80
-166 34 -19 705 -384 1492 -811 927 -503 1449 -781 1484 -791 72 -18 164 -18
232 2 30 9 649 315 1377 681 l1322 664 0 -645 c0 -633 0 -646 20 -666 19 -19
33 -20 223 -20 167 0 206 3 225 16 l22 15 0 814 0 815 -27 30 c-16 16 -84 60
-153 98 -1156 634 -2855 1549 -2894 1559 -63 16 -188 16 -241 -1z m-845 -1074
c14 -12 78 -146 169 -353 119 -272 150 -334 166 -334 15 0 46 64 168 342 129
295 152 343 176 352 16 7 81 11 171 9 138 -3 145 -4 148 -24 4 -27 -493 -1144
-520 -1166 -30 -26 -256 -26 -287 0 -22 18 -521 1130 -521 1161 0 10 3 21 7
24 3 4 73 7 154 7 127 0 150 -2 169 -18z m1754 7 c225 -41 379 -242 363 -474
-7 -109 -38 -184 -105 -256 -93 -101 -198 -139 -390 -139 -68 0 -132 -5 -143
-10 -17 -10 -19 -23 -19 -155 0 -132 -2 -145 -19 -155 -11 -5 -78 -10 -150
-10 -104 0 -133 3 -145 16 -14 14 -16 81 -16 589 0 508 2 575 16 589 13 14 53
16 283 16 148 0 293 -5 325 -11z"/>
<path d="M4067 4824 c-12 -13 -8 -239 5 -252 15 -15 215 -17 252 -2 44 16 68
66 63 133 -3 49 -8 63 -35 90 l-32 32 -123 3 c-67 2 -125 0 -130 -4z"/>
<path d="M1475 3115 l-25 -24 0 -497 c0 -477 1 -499 20 -539 11 -23 32 -53 47
-67 25 -23 1697 -938 1818 -994 37 -18 68 -24 117 -24 l68 0 978 489 c661 331
989 500 1011 521 69 69 66 43 69 593 l3 498 -30 29 c-16 17 -40 30 -53 30 -13
0 -460 -219 -994 -487 l-972 -488 -83 0 -84 0 -906 493 c-549 298 -917 492
-933 492 -15 0 -38 -11 -51 -25z"/>
</g>
</svg>
