<?xml version="1.0" encoding="UTF-8" standalone="no"?>
<!-- Created with Inkscape (http://www.inkscape.org/) -->

<svg
   width="133.942mm"
   height="133.942mm"
   viewBox="0 0 133.942 133.942"
   version="1.1"
   id="svg5"
   xml:space="preserve"
   sodipodi:docname="better_vp.svg"
   inkscape:version="1.2.1 (9c6d41e410, 2022-07-14)"
   xmlns:inkscape="http://www.inkscape.org/namespaces/inkscape"
   xmlns:sodipodi="http://sodipodi.sourceforge.net/DTD/sodipodi-0.dtd"
   xmlns="http://www.w3.org/2000/svg"
   xmlns:svg="http://www.w3.org/2000/svg"><sodipodi:namedview
     id="namedview1059"
     pagecolor="#ffffff"
     bordercolor="#000000"
     borderopacity="0.25"
     inkscape:showpageshadow="2"
     inkscape:pageopacity="0.0"
     inkscape:pagecheckerboard="0"
     inkscape:deskcolor="#d1d1d1"
     inkscape:document-units="mm"
     showgrid="false"
     inkscape:zoom="1.3185685"
     inkscape:cx="31.852725"
     inkscape:cy="276.81535"
     inkscape:window-width="1920"
     inkscape:window-height="1017"
     inkscape:window-x="1912"
     inkscape:window-y="1072"
     inkscape:window-maximized="1"
     inkscape:current-layer="svg5" /><defs
     id="defs2"><inkscape:path-effect
       effect="fillet_chamfer"
       id="path-effect12250"
       is_visible="true"
       lpeversion="1"
       nodesatellites_param="F,0,0,1,0,19.84375,0,1 @ F,0,0,1,0,19.84375,0,1 @ F,0,0,1,0,19.84375,0,1 @ F,0,0,1,0,19.84375,0,1"
       unit="px"
       method="auto"
       mode="F"
       radius="75"
       chamfer_steps="1"
       flexible="false"
       use_knot_distance="true"
       apply_no_radius="true"
       apply_with_radius="true"
       only_selected="false"
       hide_knots="false" /><inkscape:path-effect
       effect="fillet_chamfer"
       id="path-effect11803"
       is_visible="true"
       lpeversion="1"
       nodesatellites_param="F,0,0,1,0,19.84375,0,1 @ F,0,0,1,0,19.84375,0,1 @ F,0,0,1,0,19.84375,0,1 @ F,0,0,1,0,19.84375,0,1"
       unit="px"
       method="auto"
       mode="F"
       radius="75"
       chamfer_steps="1"
       flexible="false"
       use_knot_distance="true"
       apply_no_radius="true"
       apply_with_radius="true"
       only_selected="false"
       hide_knots="false" /></defs><rect
     style="fill:#e7e7e7;stroke-width:0.264999"
     id="rect12272"
     width="133.942"
     height="133.942"
     x="0"
     y="0"
     ry="25" /><path
     id="rect7878-1-4-5-6-9"
     style="fill:#101010;fill-opacity:1;stroke-width:0.217604"
     d="m 27.69284,75.43021 10e-6,17.28902 a 4.4492438,4.4492438 0 0 0 2.32471,3.90923 l 33.531704,18.22335 a 5.0672353,5.0672353 0 0 0 4.690083,0.0779 L 104.37624,96.81823 a 4.2856101,4.2856101 0 0 0 2.36538,-3.83134 V 75.69832 A 1.6334743,1.6334743 0 0 0 104.37624,74.238 L 68.239347,92.34948 a 5.0671798,5.0671798 0 0 1 -4.690071,-0.0779 L 30.01753,74.04782 a 1.5733825,1.5733825 0 0 0 -2.32469,1.38241 z" /><path
     id="rect8564-5-2-2-8"
     d="m 121.24371,47.15302 h 6.85971 a 1.3229167,1.3229167 0 0 1 1.32292,1.32291 v 29.67304 a 1.3229167,1.3229167 0 0 1 -1.32292,1.32291 h -6.85971 a 1.3229167,1.3229167 0 0 1 -1.32292,-1.32291 V 48.47593 a 1.3229167,1.3229167 0 0 1 1.32292,-1.32291 z"
     style="fill:#4f4f4f;fill-opacity:1;stroke-width:0.23663" /><path
     id="rect7878-5-2-8-9"
     d="M 6.43822,45.08023 64.928748,15.7652 a 4.9752653,2.5978238 0.95151577 0 1 7.035117,0.11685 l 56.009905,30.43967 a 4.9752653,2.5978238 0.95151577 0 1 -0.061,3.67337 L 69.422236,79.31012 A 4.9752653,2.5978238 0.95151577 0 1 62.387118,79.19328 L 6.37721,48.7536 a 4.9752653,2.5978238 0.95151577 0 1 0.061,-3.67337 z"
     style="fill:#2f2f2f;fill-opacity:1;stroke-width:0.217603" /><path
     id="rect395"
     style="fill:#e8e8e8;fill-opacity:1;stroke-width:0.264999"
     d="m 43.994731,35.641752 c -0.27301,0 -0.451365,0.0947 -0.535368,0.283704 -0.105004,0.189006 -0.105004,0.398928 0,0.629935 l 9.513114,21.451921 c 0.105004,0.189006 0.251794,0.357357 0.4408,0.504362 0.210007,0.126004 0.420446,0.189136 0.630453,0.189136 h 4.189408 c 0.210007,0 0.409407,-0.06313 0.598413,-0.189136 0.210007,-0.147005 0.367836,-0.315356 0.472839,-0.504362 l 9.607683,-21.578011 c 0.084,-0.168006 0.07348,-0.33584 -0.03152,-0.503845 -0.105003,-0.189007 -0.272837,-0.283704 -0.503845,-0.283704 H 63.14757 c -0.210007,0 -0.420446,0.07365 -0.630453,0.220658 -0.189006,0.126005 -0.335796,0.283317 -0.4408,0.472323 l -5.512842,12.66331 c -0.105003,0.189006 -0.241271,0.283703 -0.409277,0.283703 -0.168006,0 -0.30479,-0.0947 -0.409794,-0.283703 L 50.200553,36.334733 C 50.09555,36.145727 49.937721,35.988415 49.727714,35.86241 49.538708,35.715405 49.339308,35.641752 49.129301,35.641752 Z m 28.162105,0 c -0.210007,0 -0.38888,0.07365 -0.535885,0.220658 -0.147005,0.147005 -0.220141,0.325361 -0.220141,0.535368 v 21.547006 c 0,0.210007 0.07314,0.388362 0.220141,0.535367 0.147005,0.147005 0.325878,0.220659 0.535885,0.220659 h 4.756299 c 0.210007,0 0.388879,-0.07365 0.535884,-0.220659 0.147005,-0.147005 0.220142,-0.32536 0.220142,-0.535367 v -4.693771 c 0,-0.210007 0.07365,-0.388879 0.220658,-0.535884 0.147005,-0.147005 0.325361,-0.220142 0.535368,-0.220142 h 2.740918 c 1.533052,0 2.866234,-0.209921 4.000273,-0.629936 1.155039,-0.441015 2.110983,-1.029208 2.867008,-1.764233 0.777027,-0.756026 1.354181,-1.638316 1.732194,-2.64635 0.378013,-1.029035 0.567407,-2.131252 0.567407,-3.307292 0,-1.17604 -0.230965,-2.278773 -0.69298,-3.307808 -0.441015,-1.029035 -1.050253,-1.931853 -1.827279,-2.708879 -0.756026,-0.777026 -1.658843,-1.386264 -2.708879,-1.827279 -1.029035,-0.441015 -2.131768,-0.661458 -3.307808,-0.661458 z m 6.268351,5.796029 h 2.96106 c 0.441015,0 0.829809,0.08418 1.16582,0.252181 0.336011,0.147005 0.619586,0.346404 0.850594,0.598413 0.231008,0.252008 0.398842,0.546105 0.503845,0.882117 0.126005,0.31501 0.189136,0.640673 0.189136,0.976684 0,0.651022 -0.188878,1.238699 -0.56689,1.763717 -0.357012,0.504017 -0.934684,0.756026 -1.732711,0.756026 h -3.370854 c -0.210007,0 -0.388363,-0.07314 -0.535368,-0.220142 -0.147005,-0.147005 -0.220658,-0.325877 -0.220658,-0.535884 v -3.717086 c 0,-0.210007 0.07365,-0.388363 0.220658,-0.535368 0.147005,-0.147005 0.325361,-0.220658 0.535368,-0.220658 z" /></svg>
