<?xml version="1.0" encoding="UTF-8" standalone="no"?>
<svg
   xmlns:dc="http://purl.org/dc/elements/1.1/"
   xmlns:cc="http://creativecommons.org/ns#"
   xmlns:rdf="http://www.w3.org/1999/02/22-rdf-syntax-ns#"
   xmlns:svg="http://www.w3.org/2000/svg"
   xmlns="http://www.w3.org/2000/svg"
   xmlns:sodipodi="http://sodipodi.sourceforge.net/DTD/sodipodi-0.dtd"
   xmlns:inkscape="http://www.inkscape.org/namespaces/inkscape"
   xml:space="preserve"
   id="svg5"
   version="1.1"
   viewBox="0 0 131.86377 106.36457"
   height="106.36457mm"
   width="131.86377mm"
   sodipodi:docname="better_vp_white.svg"
   inkscape:version="0.92.4 (5da689c313, 2019-01-14)"><sodipodi:namedview
     pagecolor="#ffffff"
     bordercolor="#666666"
     borderopacity="1"
     objecttolerance="10"
     gridtolerance="10"
     guidetolerance="10"
     inkscape:pageopacity="0"
     inkscape:pageshadow="2"
     inkscape:window-width="1920"
     inkscape:window-height="1017"
     id="namedview833"
     showgrid="false"
     inkscape:zoom="0.73435655"
     inkscape:cx="596.85051"
     inkscape:cy="-28.144714"
     inkscape:window-x="1912"
     inkscape:window-y="-8"
     inkscape:window-maximized="1"
     inkscape:current-layer="g837" /><metadata
     id="metadata831"><rdf:RDF><cc:Work
         rdf:about=""><dc:format>image/svg+xml</dc:format><dc:type
           rdf:resource="http://purl.org/dc/dcmitype/StillImage" /><dc:title /></cc:Work></rdf:RDF></metadata><defs
     id="defs2" /><g
     transform="translate(-4.9505038,-9.1022474)"
     id="g837"><path
       id="rect7878-1-4-5-6-9"
       style="fill:#f0f0f0;fill-opacity:1;stroke-width:0.23051929"
       d="m 29.04265,73.053945 1e-5,18.315163 a 4.7133166,4.7133166 0 0 0 2.462687,4.141252 l 35.521887,19.30495 a 5.3679873,5.3679873 0 0 0 4.968451,0.0825 L 110.27738,95.711393 a 4.5399709,4.5399709 0 0 0 2.50578,-4.058739 V 73.337968 a 1.7304247,1.7304247 0 0 0 -2.50578,-1.546993 L 71.995685,90.977412 a 5.3679285,5.3679285 0 0 1 -4.968438,-0.08252 L 31.505315,71.589507 a 1.6667663,1.6667663 0 0 0 -2.462665,1.464459 z" /><path
       id="rect8564-5-2-2-8"
       d="m 128.14598,43.098439 h 7.26685 a 1.4014348,1.4014348 0 0 1 1.40144,1.401428 V 75.93407 a 1.4014348,1.4014348 0 0 1 -1.40144,1.401427 h -7.26685 A 1.4014348,1.4014348 0 0 1 126.74454,75.93407 V 44.499867 a 1.4014348,1.4014348 0 0 1 1.40144,-1.401428 z"
       style="fill:#b0b0b0;fill-opacity:1;stroke-width:0.25067452" /><path
       style="fill:#d1d1d1;fill-opacity:1;stroke-width:0.87125003"
       d="M 254.56836 0.01171875 A 19.920222 10.4013 0.95151577 0 0 240.14453 2.8183594 L 5.9570312 120.18945 A 19.920222 10.4013 0.95151577 0 0 5.7128906 134.89844 L 229.9668 256.77344 A 19.920222 10.4013 0.95151577 0 0 258.13477 257.24219 L 492.32227 139.86914 A 19.920222 10.4013 0.95151577 0 0 492.56641 125.16211 L 268.31055 3.2851562 A 19.920222 10.4013 0.95151577 0 0 254.56836 0.01171875 z M 156.32812 82.400391 L 176.88477 82.400391 C 177.7256 82.400391 178.5245 82.694617 179.28125 83.283203 C 180.12209 83.787706 180.75341 84.417076 181.17383 85.173828 L 203.37109 135.87695 C 203.79151 136.63371 204.33905 137.01172 205.01172 137.01172 C 205.68439 137.01172 206.22997 136.63371 206.65039 135.87695 L 228.72266 85.173828 C 229.14308 84.417076 229.73153 83.787706 230.48828 83.283203 C 231.32912 82.694636 232.17088 82.400391 233.01172 82.400391 L 253.94922 82.400391 C 254.87414 82.400391 255.54638 82.7784 255.9668 83.535156 C 256.38719 84.207821 256.42814 84.880062 256.0918 85.552734 L 217.625 171.94922 C 217.20458 172.70597 216.57326 173.38016 215.73242 173.96875 C 214.97567 174.47325 214.17678 174.72461 213.33594 174.72461 L 196.5625 174.72461 C 195.72166 174.72461 194.87795 174.47325 194.03711 173.96875 C 193.28036 173.38016 192.69386 172.70597 192.27344 171.94922 L 154.18359 86.058594 C 153.76317 85.133675 153.76317 84.291908 154.18359 83.535156 C 154.51993 82.7784 155.23503 82.400391 156.32812 82.400391 z M 269.08398 82.400391 L 307.67773 82.400391 C 312.38642 82.400391 316.80177 83.283071 320.92188 85.048828 C 325.12606 86.814586 328.74057 89.254139 331.76758 92.365234 C 334.87868 95.476334 337.31822 99.090833 339.08398 103.21094 C 340.93382 107.33104 341.85938 111.74639 341.85938 116.45508 C 341.85937 121.16376 341.1014 125.57716 339.58789 129.69727 C 338.07438 133.73328 335.76344 137.26595 332.65234 140.29297 C 329.62533 143.2359 325.79648 145.58971 321.17188 147.35547 C 316.63135 149.03715 311.29436 149.87891 305.15625 149.87891 L 294.18164 149.87891 C 293.34081 149.87891 292.62765 150.17118 292.03906 150.75977 C 291.45046 151.34835 291.1543 152.06346 291.1543 152.9043 L 291.1543 171.69727 C 291.1543 172.5381 290.86202 173.25321 290.27344 173.8418 C 289.68485 174.43037 288.96779 174.72461 288.12695 174.72461 L 269.08398 174.72461 C 268.24315 174.72461 267.52804 174.43038 266.93945 173.8418 C 266.35088 173.25321 266.05664 172.5381 266.05664 171.69727 L 266.05664 85.427734 C 266.05664 84.586899 266.35087 83.871789 266.93945 83.283203 C 267.52804 82.694636 268.24315 82.400391 269.08398 82.400391 z M 294.18164 105.60742 C 293.34081 105.60742 292.62765 105.90165 292.03906 106.49023 C 291.45046 107.07882 291.1543 107.79197 291.1543 108.63281 L 291.1543 123.51562 C 291.1543 124.35646 291.45048 125.07352 292.03906 125.66211 C 292.62765 126.25069 293.34081 126.54297 294.18164 126.54297 L 307.67773 126.54297 C 310.87292 126.54297 313.18581 125.53364 314.61523 123.51562 C 316.12874 121.41353 316.88477 119.06167 316.88477 116.45508 C 316.88477 115.10974 316.63341 113.80618 316.12891 112.54492 C 315.70849 111.19958 315.03625 110.02072 314.11133 109.01172 C 313.18641 108.00271 312.05042 107.20577 310.70508 106.61719 C 309.35974 105.94451 307.80287 105.60742 306.03711 105.60742 L 294.18164 105.60742 z "
       transform="matrix(0.26458334,0,0,0.26458334,4.9505038,9.1022474)"
       id="rect7878-5-2-8-9" /></g></svg>