<?xml version="1.0" encoding="UTF-8" standalone="no"?>
<svg
   xmlns:dc="http://purl.org/dc/elements/1.1/"
   xmlns:cc="http://creativecommons.org/ns#"
   xmlns:rdf="http://www.w3.org/1999/02/22-rdf-syntax-ns#"
   xmlns:svg="http://www.w3.org/2000/svg"
   xmlns="http://www.w3.org/2000/svg"
   xml:space="preserve"
   id="svg5"
   version="1.1"
   viewBox="0 0 131.86377 106.36457"
   height="106.36457mm"
   width="131.86377mm"><metadata
     id="metadata831"><rdf:RDF><cc:Work
         rdf:about=""><dc:format>image/svg+xml</dc:format><dc:type
           rdf:resource="http://purl.org/dc/dcmitype/StillImage" /><dc:title></dc:title></cc:Work></rdf:RDF></metadata><defs
     id="defs2" /><g
     transform="translate(-4.9505038,-9.1022474)"
     id="g837"><path
       id="rect7878-1-4-5-6-9"
       style="fill:#f0f0f0;fill-opacity:1;stroke-width:0.23051929"
       d="m 29.04265,73.053945 1e-5,18.315163 a 4.7133166,4.7133166 0 0 0 2.462687,4.141252 l 35.521887,19.30495 a 5.3679873,5.3679873 0 0 0 4.968451,0.0825 L 110.27738,95.711393 a 4.5399709,4.5399709 0 0 0 2.50578,-4.058739 V 73.337968 a 1.7304247,1.7304247 0 0 0 -2.50578,-1.546993 L 71.995685,90.977412 a 5.3679285,5.3679285 0 0 1 -4.968438,-0.08252 L 31.505315,71.589507 a 1.6667663,1.6667663 0 0 0 -2.462665,1.464459 z" /><path
       id="rect8564-5-2-2-8"
       d="m 128.14598,43.098439 h 7.26685 a 1.4014348,1.4014348 0 0 1 1.40144,1.401428 V 75.93407 a 1.4014348,1.4014348 0 0 1 -1.40144,1.401427 h -7.26685 A 1.4014348,1.4014348 0 0 1 126.74454,75.93407 V 44.499867 a 1.4014348,1.4014348 0 0 1 1.40144,-1.401428 z"
       style="fill:#b0b0b0;fill-opacity:1;stroke-width:0.25067452" /><path
       id="rect7878-5-2-8-9"
       d="M 6.5265194,40.902624 68.488594,9.8476804 a 5.2705587,2.7520106 0.95151577 0 1 7.452667,0.1237853 L 135.27548,42.2178 a 5.2705587,2.7520106 0.95151577 0 1 -0.0646,3.891393 L 73.248781,77.164137 A 5.2705587,2.7520106 0.95151577 0 1 65.796112,77.040362 L 6.4618883,44.794017 a 5.2705587,2.7520106 0.95151577 0 1 0.064621,-3.891393 z"
       style="fill:#d1d1d1;fill-opacity:1;stroke-width:0.23051824" /><path
       id="rect395"
       style="fill:#171717;fill-opacity:1;stroke-width:0.2807273"
       d="m 46.312095,30.903951 c -0.289214,0 -0.478154,0.100318 -0.567143,0.300543 -0.111236,0.200224 -0.111236,0.422605 0,0.667323 l 10.077739,22.725141 c 0.111236,0.200224 0.266738,0.378567 0.466962,0.534297 0.222472,0.133483 0.445401,0.200362 0.667872,0.200362 h 4.438059 c 0.222472,0 0.433706,-0.06688 0.63393,-0.200362 0.222472,-0.15573 0.389668,-0.334073 0.500903,-0.534297 L 72.708338,31.738243 c 0.08899,-0.177978 0.07784,-0.355773 -0.03339,-0.533749 -0.111235,-0.200225 -0.28903,-0.300543 -0.533749,-0.300543 H 66.6017 c -0.222472,0 -0.445401,0.07803 -0.667872,0.233755 -0.200224,0.133483 -0.355726,0.300132 -0.466963,0.500356 L 59.62682,45.052969 c -0.111236,0.200224 -0.255591,0.300541 -0.433569,0.300541 -0.177977,0 -0.32288,-0.100317 -0.434116,-0.300541 L 52.886247,31.638062 c -0.111235,-0.200224 -0.278432,-0.366873 -0.500903,-0.500356 -0.200224,-0.15573 -0.411459,-0.233755 -0.63393,-0.233755 z m 29.83359,0 c -0.222471,0 -0.41196,0.07803 -0.567691,0.233755 -0.15573,0.15573 -0.233206,0.344672 -0.233206,0.567143 v 22.82587 c 0,0.222472 0.07748,0.411412 0.233206,0.567142 0.155731,0.15573 0.34522,0.233756 0.567691,0.233756 h 5.038597 c 0.222471,0 0.41196,-0.07803 0.56769,-0.233756 0.15573,-0.15573 0.233208,-0.34467 0.233208,-0.567142 v -4.972357 c 0,-0.222471 0.07802,-0.41196 0.233754,-0.56769 0.15573,-0.15573 0.344672,-0.233208 0.567143,-0.233208 h 2.903598 c 1.624042,0 3.036352,-0.22238 4.237699,-0.667324 1.223593,-0.46719 2.236274,-1.090294 3.037171,-1.868944 0.823145,-0.800898 1.434555,-1.735554 1.835004,-2.803417 0.400449,-1.090111 0.601084,-2.257747 0.601084,-3.503587 0,-1.245841 -0.244674,-2.414024 -0.73411,-3.504134 -0.467191,-1.090111 -1.112588,-2.046513 -1.935733,-2.869658 -0.800897,-0.823144 -1.757299,-1.468542 -2.869657,-1.935732 -1.09011,-0.46719 -2.258293,-0.700717 -3.504134,-0.700717 z m 6.640392,6.140037 h 3.136806 c 0.46719,0 0.87906,0.08917 1.235014,0.267148 0.355954,0.15573 0.65636,0.366964 0.901079,0.63393 0.244719,0.266966 0.422514,0.578518 0.533749,0.934473 0.133484,0.333707 0.200362,0.678699 0.200362,1.034653 0,0.689661 -0.200088,1.312218 -0.600536,1.868397 -0.378202,0.533932 -0.99016,0.800898 -1.835552,0.800898 h -3.570922 c -0.222471,0 -0.411413,-0.07748 -0.567143,-0.233208 -0.15573,-0.15573 -0.233754,-0.345218 -0.233754,-0.56769 v -3.937703 c 0,-0.222472 0.07802,-0.411414 0.233754,-0.567144 0.15573,-0.15573 0.344672,-0.233754 0.567143,-0.233754 z" /></g></svg>