<?xml version="1.0" encoding="UTF-8" standalone="no"?>
<svg
   xmlns:dc="http://purl.org/dc/elements/1.1/"
   xmlns:cc="http://creativecommons.org/ns#"
   xmlns:rdf="http://www.w3.org/1999/02/22-rdf-syntax-ns#"
   xmlns:svg="http://www.w3.org/2000/svg"
   xmlns="http://www.w3.org/2000/svg"
   id="svg8"
   version="1.1"
   viewBox="0 0 118.53334 155.48874"
   height="155.48874mm"
   width="118.53334mm">
  <defs
     id="defs2" />
  <metadata
     id="metadata5">
    <rdf:RDF>
      <cc:Work
         rdf:about="">
        <dc:format>image/svg+xml</dc:format>
        <dc:type
           rdf:resource="http://purl.org/dc/dcmitype/StillImage" />
        <dc:title></dc:title>
      </cc:Work>
    </rdf:RDF>
  </metadata>
  <g
     transform="translate(-45.733333,-32.846704)"
     id="layer1">
    <path
       style="stroke-width:0.26458332"
       d="m 105.00001,120.60211 a 33.866667,33.866667 0 1 0 0,-67.733333 33.866667,33.866667 0 1 0 0,67.733333 z m -12.091466,12.7 c -26.06146,0 -47.175211,21.11375 -47.175211,47.17521 0,4.33917 3.51896,7.85813 7.858131,7.85813 H 156.40855 c 4.33916,0 7.85812,-3.51896 7.85812,-7.85813 0,-26.06146 -21.11374,-47.17521 -47.1752,-47.17521 z"
       id="path857" />
    <g
       style="fill:#000000;stroke:none"
       transform="matrix(0.03527778,0,0,-0.03527778,138.3446,207.3982)"
       id="g876">
      <rect
         transform="scale(1,-1)"
         y="-4476.3262"
         x="-1772.2374"
         height="657.87238"
         width="1718.589"
         id="rect892"
         style="opacity:1;vector-effect:none;fill:#000000;fill-opacity:1;fill-rule:nonzero;stroke:none;stroke-width:23.51224136;stroke-linecap:round;stroke-linejoin:round;stroke-miterlimit:4;stroke-dasharray:none;stroke-dashoffset:0;stroke-opacity:1;paint-order:stroke fill markers" />
      <g
         transform="matrix(0.48307421,0,0,0.48307421,-2640.6668,1948.5674)"
         id="g890">
        <path
           id="path870"
           d="M 3445,6196 C 3373,6173 306,4627 283,4602 c -49,-53 -21,-110 80,-166 34,-19 705,-384 1492,-811 927,-503 1449,-781 1484,-791 72,-18 164,-18 232,2 30,9 649,315 1377,681 l 1322,664 v -645 c 0,-633 0,-646 20,-666 19,-19 33,-20 223,-20 167,0 206,3 225,16 l 22,15 v 814 815 l -27,30 c -16,16 -84,60 -153,98 -1156,634 -2855,1549 -2894,1559 -63,16 -188,16 -241,-1 z M 2600,5122 c 14,-12 78,-146 169,-353 119,-272 150,-334 166,-334 15,0 46,64 168,342 129,295 152,343 176,352 16,7 81,11 171,9 138,-3 145,-4 148,-24 4,-27 -493,-1144 -520,-1166 -30,-26 -256,-26 -287,0 -22,18 -521,1130 -521,1161 0,10 3,21 7,24 3,4 73,7 154,7 127,0 150,-2 169,-18 z m 1754,7 c 225,-41 379,-242 363,-474 -7,-109 -38,-184 -105,-256 -93,-101 -198,-139 -390,-139 -68,0 -132,-5 -143,-10 -17,-10 -19,-23 -19,-155 0,-132 -2,-145 -19,-155 -11,-5 -78,-10 -150,-10 -104,0 -133,3 -145,16 -14,14 -16,81 -16,589 0,508 2,575 16,589 13,14 53,16 283,16 148,0 293,-5 325,-11 z" />
        <path
           id="path872"
           d="m 4067,4824 c -12,-13 -8,-239 5,-252 15,-15 215,-17 252,-2 44,16 68,66 63,133 -3,49 -8,63 -35,90 l -32,32 -123,3 c -67,2 -125,0 -130,-4 z" />
      </g>
    </g>
  </g>
</svg>
