<svg id="Ebene_1" data-name="Ebene 1" xmlns="http://www.w3.org/2000/svg" viewBox="0 0 800.02 227"><defs><style>.cls-1{fill:transparent;}.cls-2{fill:transparent;}.cls-3{fill:#7fc225;}.cls-4{fill:#80c226;}.cls-5{fill:#2a0e72;}.cls-6{fill:#2a0e71;}.cls-7{fill:#2a0f71;}</style></defs><title>logo</title><path class="cls-1" d="M800.38,111.18V227.36H451.15a15.81,15.81,0,0,1,1.49-.73c3.16-1.24,5.51-3.31,5.95-6.8.35-2.88.29-5.82.41-8.73s.25-5.65.29-8.48a2.8,2.8,0,0,0-.58-1.93,57.38,57.38,0,0,0-5.83-4.24c-4.37-2.69-9.37-3.56-14.27-4.65a38.89,38.89,0,0,0-6.11-.71c-2.1-.12-4.21,0-6.31-.09a2.18,2.18,0,0,1-1.43-1,18.28,18.28,0,0,1-2.37-14.4c1-4.61,2.08-5.23,6.88-4.28,2.44.48,3.49,0,4.75-1.93a2.78,2.78,0,0,1,1.15-1,4.56,4.56,0,0,0,2.76-5.12,3.74,3.74,0,0,1,2.38-4.3c1.5-.67,1.73-3.44.39-4.38a23.3,23.3,0,0,0-4.95-3,2.85,2.85,0,0,1-2-2.33c-.66-2.75-1.11-5.6,1.54-7.42a19.63,19.63,0,0,1,6.25-2.56c1.8-.46,3.6-.47,4.19-2.73a11.48,11.48,0,0,1,1.26-2.25c-1.17-.73-2.36-1.55-3.61-2.22-2.39-1.28-2.87-2.85-1.49-5.18a12.67,12.67,0,0,1,.83-1.36c2.46-3.11,4.57-6.83,9.43-6.25,1.7.21,2.15-.63,2.13-2A8.58,8.58,0,0,0,454,115c-.95-2.88,0-4.24,3.12-4.18,1.27,0,2.55.37,3.82.32a7.42,7.42,0,0,0,4.93-2.07c2.18-2,4.06-1.61,5.38.84.47.88,1.57,1.39,2.22,2.21a9.44,9.44,0,0,1,1.56,2.74c.25.74-.06,1.66.08,2.47.26,1.52.17,3.62,1.12,4.4,2.11,1.74,4.77,2.8,7.39,4.24.32,1.65.77,3.65,1.06,5.66a3.65,3.65,0,0,0,1.75,3c2,1.07,3.67,3.11,6.51,1.89,1.32-.57,3-.38,4.45-.53.19,1,.36,1.81.48,2.61.39,2.75-.92,5.26-3.24,5.58-1.51.2-3.1-.29-4.66-.41-.73-.06-1.93-.23-2.12.1a1.89,1.89,0,0,0,.5,2.75c2.31,1.7,4.59,3.28,7.66,3a5.17,5.17,0,0,1,1.54.35c-.72,2.15-1.54,4-2,6s-.42,4.34-.95,6.42c-.38,1.49-1.51,2.78-2,4.25s-1.43,2.19-3.06,1.72a3.12,3.12,0,0,0-1.72-.23c-.51.18-1.2.76-1.25,1.22-.39,3.57.14,4.46,3.31,6.08a7.84,7.84,0,0,1,1.26.64c.3.22.66.59.67.9a16.41,16.41,0,0,1-.12,3.71c-.66,3.25-2.72,5.4-5.44,7.27-3,2.05-5.69,3.43-9,.95a.83.83,0,0,0-.16-.09c-2.75-1.37-7.53.31-8.77,3.09a11.14,11.14,0,0,1-1.51,3.14c-2.1,2.3-1.57,4.42-.21,6.83a38.68,38.68,0,0,1,2.3,5.69c.24.64.1,1.64.52,2,2.75,2.11,5.57,4.18,9.28,4.18H791.16c.48,0,1.05.17,1.41,0,1.06-.61,2.58-1.17,2.95-2.12,1.45-3.76-.51-6.32-4.55-6.34h-.35q-63.17,0-126.33,0-94.57.12-189.15.34c-2.43,0-2.8-.2-2.58-2.62a48.66,48.66,0,0,1,1.36-6.47c.52-2.24,1.95-3.59,4.25-3.44a12.85,12.85,0,0,1,3.63,1.29c.85.34,1.75,1.18,2.49,1,5.7-1,10.49-3.57,13.24-8.87,1.93-3.73,2.66-8.45-2.63-10.91-1.55-.72-1.56-1.81-1.17-3.2a15.41,15.41,0,0,0,3.38.31,2.74,2.74,0,0,0,2-1.23c1-2.63,3-5,2.4-8.06,0,0,.06-.1.07-.16.7-2.35,1.43-4.69,2.08-7.05,1-3.46.25-5-2.85-6.68-.42-.23-.67-.79-1.2-1.45a7.81,7.81,0,0,0,1.89-.29c.93-.46,2.49-1,2.57-1.59.33-2.79.78-5.88-1.21-8.19a16.72,16.72,0,0,0-10.19-5.88c-.91-.14-2.07-.06-2.28-1.43-.38-2.45-1.92-4-3.85-5.4-1.76-1.28-4.52-1.8-4.3-4.88a4.67,4.67,0,0,0-.12-1.23c-.41-2.1-.83-4.11-3.22-5.06-.77-.3-1.22-1.45-1.75-2.25-.64-1-1-2.22-1.86-2.93a58,58,0,0,0-5.84-4.25c-3.45-2.28-8.89-1.89-11.53,1.73-.48.66-2.11.58-3.21.65a5.55,5.55,0,0,1-1.86-.55,4.56,4.56,0,0,0-5.93,4.25c0,1.38.15,2.76.23,4.2-1.08,0-2.16-.18-2.94.2-3.87,1.85-7.26,4.31-9.13,8.37-1.26,2.73-.88,4.1,1.58,5.88.72.52,1.44,1,2.11,1.62a1.64,1.64,0,0,1,.6,1,3.42,3.42,0,0,1-3.18,3,9.77,9.77,0,0,0-8.13,4.51c-1.7,2.53-1.72,5.27-1.75,8,0,1.43.16,3.05,1.79,3.9s3.49,1.93,5.22,2.91a4.87,4.87,0,0,1,.71.58c-.23.2-.48.4-.7.62-.59.57-1.5,1.07-1.67,1.75a30,30,0,0,0-.45,4.37c-.05.52,0,1.24-.35,1.49-1.61,1.31-3.31,2.51-5,3.72-.12.09-.35,0-.53,0-1.06-.06-2.12-.17-3.18-.17-4.73,0-7,2.27-6.94,7.07a33.35,33.35,0,0,0,.78,7.69c.69,2.62,1.47,5.6,3.23,7.46a29.25,29.25,0,0,0,22.15,9.5,15.15,15.15,0,0,1,5.65,1.05c4,1.62,5.26,3,4.89,6.78-.08.77.08,1.55,0,2.31a39.61,39.61,0,0,1-.53,6.38,4.34,4.34,0,0,1-3.69,3.35,31,31,0,0,1-4.91.42H60.29q-26.11,0-52.21,0a7.46,7.46,0,0,0-3.85.87c-2.49,1.57-1.77,5.92,1.12,7.62h-5V155c.28.37.56.73.83,1.11a5.34,5.34,0,0,0,5,2.42c2.15-.2,4.31-.46,6.46-.72,5.88-.7,11.75-1.46,17.63-2.1,5-.55,10-.94,15.07-1.47s10.24-1.21,15.37-1.74c1.24-.12,1.61-.63,1.63-1.79.09-5.86.29-11.71.34-17.57.14-16.73.37-33.46.25-50.19a11.22,11.22,0,0,1,3.78-9c3.4-3.21,6.5-6.74,9.81-10,1-.95,1.61-2.33,3.36-2.33,19.18,0,38.36,0,57.55,0a2.33,2.33,0,0,1,1.45.39c1.25,1.14,2.41,2.4,3.61,3.6,3.05,3,6.15,6,9.14,9.15,1,1.07,2.5,2.35,2.56,3.59.36,7.45.4,14.92.46,22.38,0,2.4.05,2.57,2.54,2.55,17.21-.11,34.42-.25,51.62-.33q17.28-.08,34.57,0c1.52,0,2.12-.41,2.13-2q.14-21.09.35-42.17v-.18c-.12-2.27.72-4.78-2-6.56,4.29-2.39,8.36-4.48,12.23-6.9,2.35-1.48,4.79-1.39,7.32-1.39q24.59,0,49.17,0a3.47,3.47,0,0,0,1.49-.32Q326,37.58,337.8,31.64c4.38-2.2,8.76-4.38,13.12-6.6a3.19,3.19,0,0,1,3.27,0c4.53,2.36,9.15,4.56,13.72,6.83l19.32,9.64a19.93,19.93,0,0,0,9.41,2.4c17.7-.17,35.4-.09,53.1,0a5.29,5.29,0,0,1,2.78.77c3.29,2.19,6.48,4.51,9.7,6.8a1.36,1.36,0,0,1,.35,2.21,3.77,3.77,0,0,0-.68,2c-.05,7.25,0,14.5,0,21.74,0,2.34.06,2.39,2.41,2.39h58.62q14.43,0,28.86,0c1.76,0,2.4-.47,2.35-2.21-.06-2.6-.33-5.19-.33-7.78q-.06-18.88,0-37.77a3.76,3.76,0,0,1,1.26-2.47c1.39-1.24,3-2.2,4.51-3.36,3.3-2.56,6.61-5.12,9.83-7.79,2.29-1.88,6-2.78,5.08-7,0-.07.14-.18.21-.27a2.05,2.05,0,0,1,.34-.07q36.62,0,73.23,0c1.12,0,1.38.46,1.44,1.49a3.82,3.82,0,0,0,.7,2.38c1.78,1.69,3.75,3.18,5.65,4.74,2.64,2.17,5.21,4.41,7.94,6.45a8.6,8.6,0,0,1,3.93,7.68c-.19,23.1-.1,46.2-.1,69.31,0,1.54,0,3.09,0,4.63,0,1.11.39,1.67,1.5,1.73,1.47.09,2.93.24,4.4.3q8.76.38,17.53.72l17.52.71,17.35.72c6,.24,12,.46,18.06.71,5.61.23,11.21.5,16.82.71,7,.26,14,.46,21.08.72,3.7.14,7.43.15,11.1.62C796.48,115.05,798.77,114,800.38,111.18ZM158.32,180.35l.45.12c-.17,2-.45,4-.48,5.95-.08,4.15,0,8.31,0,12.46,0,1.72-.56,3.44-.58,5.16a3.35,3.35,0,0,0,1,2.41c1.44,1.17,4.45.61,5.56-1a5.33,5.33,0,0,0,.57-2.78c0-.66-.54-1.34-.54-2q-.06-14.24,0-28.49a23.17,23.17,0,0,1,.62-2.88,2.68,2.68,0,0,0-.18-1.67,4.84,4.84,0,0,0-5.25-2.15,2.37,2.37,0,0,0-2.26,2.8,11,11,0,0,1-2,7.44c-1.31,2.07-2.82,4-4.22,6-3.21,4.6-6.45,9.19-8.23,14.75-.27-.34-.6-.57-.66-.85-1-4.86-4-8.71-6.32-12.91-1-1.87-2.25-3.64-3.23-5.54-1.62-3.17-3.58-6.2-4-9.88-.07-.56-.88-1.25-1.49-1.51-3-1.24-5.13.3-5.13,3.52,0,10.09,0,20.18,0,30.28,0,1.1-.25,2.19-.32,3.3-.1,1.36-.2,2.79,1.14,3.66s4.11.63,5.14-.43.9-2.53.34-3.92a4.81,4.81,0,0,1-.29-1.69c0-5.34,0-10.68,0-16,0-1.46-.29-2.92-.44-4.39l.66-.21c2.93,5.93,6,11.8,8.72,17.81a15.82,15.82,0,0,1,1.92,6.47c0,1.51,1.83,2.52,3.69,2.5,1.45,0,2.67-.59,2.89-2a24,24,0,0,1,3.41-8.63c1.31-2.2,2.68-4.36,4-6.55Zm230.31-.15.58.2c0,.5,0,1,0,1.49-.11,2.23-.32,4.46-.36,6.69-.06,4.16,0,8.31,0,12.47a5.82,5.82,0,0,1-.37,2.2c-.48,1.17-.46,2.24.55,3,1.43,1.09,3.05.89,4.64.3a2.18,2.18,0,0,0,1.52-2.46c-.09-1.16-.33-2.32-.33-3.48,0-9.74,0-19.47,0-29.21a8.56,8.56,0,0,1,0-1.24c.53-3.67-1-5.27-4.63-4.73-1.29.19-2.85.85-2.72,2.35.35,4-1.49,7-3.5,10.15-3.88,6-8.16,11.75-11.11,18.34-.13-.13-.34-.22-.38-.37-2-6.74-5.87-12.51-9.26-18.55-1.66-3-3.8-5.71-4.4-9.19-.35-2-1.48-2.94-3.26-2.77a3,3,0,0,0-3.07,3.22c-.13,11.79-.28,23.57-.3,35.36a3.66,3.66,0,0,0,1.5,2.6,3.38,3.38,0,0,0,4.46-.65c.6-.69.39-2.15.38-3.26,0-.79-.41-1.57-.41-2.36,0-5.35,0-10.69,0-16,0-1.4-.29-2.79-.44-4.19a43.87,43.87,0,0,1,4.27,6.32c1.85,3.46,3.67,6.95,5.2,10.56a30.61,30.61,0,0,1,1.72,6.66,3.57,3.57,0,0,0,2.39,2.95c1.4.54,3.92-.22,4.45-1.31.31-.65.18-1.51.47-2.17a87.09,87.09,0,0,1,3.74-8.15C382.68,190,385.7,185.11,388.63,180.2ZM200.1,194.82c-2-2.59-3.59-4.86-5.38-7-2.83-3.32-5.94-6.41-8.64-9.83-2.52-3.16-4.59-6.64-5.17-10.82-.09-.62-1-1.38-1.72-1.62-3.22-1.08-5.78.95-5.24,4a17.44,17.44,0,0,1,.34,2.95q0,14,0,28a8.09,8.09,0,0,1-.47,2.53c-.6,1.73-.08,3.11,1.61,3.58a9.11,9.11,0,0,0,3.11.35c1.05-.08,2.14-.49,2.09-1.87s-.3-2.9-.33-4.35c-.17-7.1-.3-14.2-.43-21.3a4.84,4.84,0,0,1,.22-.95,43.54,43.54,0,0,0,3,4.66c2.73,3.25,5.8,6.22,8.37,9.58,2.9,3.81,5.37,8,8.09,11.91.55.8,1.31,1.87,2.12,2a6.93,6.93,0,0,0,4.09-.47c1.1-.58.67-1.88-.05-2.92-.26-.36-.11-1-.11-1.56V170.34c0-.53.09-1.06.06-1.59-.07-1,.19-2.48-.38-3a4,4,0,0,0-4.53-.75,2.61,2.61,0,0,0-1.48,3.66,5.61,5.61,0,0,1,.34,1.86c0,6.41,0,12.82,0,19.24C199.63,191.32,199.91,192.88,200.1,194.82ZM69.7,187.64c-1.25,5.38-4.28,9-8.15,11.94a18.44,18.44,0,0,1-8.85,3.19,8.39,8.39,0,0,1-9.16-5.24c-2.31-6.88-1.65-13.45,3.19-19.22,3.53-4.19,7.61-7.58,13.11-8.92a7,7,0,0,1,8.06,3c.31.42.7,1,1.14,1.08a6.4,6.4,0,0,0,3,0c1-.32,2.3-1.17,1.64-2.44a12.34,12.34,0,0,0-3.4-4.53c-3.81-2.61-8.12-2.69-12.54-1.58-4.65,1.18-8.56,3.74-12.26,6.55a25.11,25.11,0,0,0-7.32,9.87,22.64,22.64,0,0,0-1.73,13.8c.77,4.15,2.3,8,6.13,10.28,3.58,2.18,7.45,2.47,11.58,1.93a23.75,23.75,0,0,0,16.42-9.11,28,28,0,0,0,5.63-11.81c.62-3-1.09-4.95-4.07-4.33-4.43.93-8.8,2.16-13.39,2.14a2.59,2.59,0,0,0-2.36,2.95c.07,1.56.89,2.33,2.67,2.26a28.1,28.1,0,0,0,4-.49C65.14,188.63,67.25,188.15,69.7,187.64Zm195.74,20.09a32.31,32.31,0,0,0,16.3-4.78c4.33-2.7,7.49-6.24,8.38-11.62,1.13-6.88-2.74-10.75-8.9-11-5.42-.18-10.49,1.8-15.74,2.68-3.9.65-5.64-.18-5.34-3.87a5.23,5.23,0,0,1,.86-2.41c3.38-5,8.2-7.13,14.09-6.78,1.74.11,3.61.46,4.37,2.7.55,1.6,4.5,1.72,5.62.33s1-2.59-.63-4.14a14,14,0,0,0-9.42-3.82,21.68,21.68,0,0,0-13.2,3.62c-3.84,2.58-7.31,5.65-8.29,10.6-.53,2.7.47,7.36,3.68,8.21a15.25,15.25,0,0,0,4.54.9c2.7-.17,5.38-.81,8.07-1.22,3.49-.53,7-1.19,10.49-1.5,2.35-.22,3.61,1.34,3.76,3.62a8.46,8.46,0,0,1-2.88,6.89,23.53,23.53,0,0,1-14,6.6c-2.29.29-4.53.06-6-2a19.23,19.23,0,0,1-1.54-2.91,2.65,2.65,0,0,0-3-1.82,3.25,3.25,0,0,0-2.8,2.55,5.56,5.56,0,0,0,1.95,5.56A13.44,13.44,0,0,0,265.44,207.73ZM222.15,192.1c5-.26,10-.56,15-.72A2.5,2.5,0,0,1,239,192.5a29,29,0,0,1,2.28,4.85c.81,2.24,2.09,4.42,1.18,7a2.08,2.08,0,0,0,.65,1.7,4.43,4.43,0,0,0,5.37.18,3.68,3.68,0,0,0,1.1-4.27,76.15,76.15,0,0,0-6.42-14.42,153.7,153.7,0,0,1-7-13.94c-1-2.09-2.36-4.19-1.37-6.76a1.71,1.71,0,0,0-.44-1.4c-1.95-1.95-6.12-1.27-6.59,1.59-.55,3.42-2.24,6.37-3.86,9.38-2.29,4.23-4.32,8.59-6.47,12.89-2.28,4.57-4.54,9.14-6.85,13.69a2.54,2.54,0,0,0,.69,3.17,3.74,3.74,0,0,0,4.1.56c1.22-.53,2.41-.93,2.41-2.72a12.17,12.17,0,0,1,.76-4.57C219.54,196.92,220.91,194.55,222.15,192.1Zm96.39-8.19c0-4.69,0-9.38,0-14.07a7.28,7.28,0,0,0-.37-2.22,3.08,3.08,0,0,0-3.57-1.83,3.34,3.34,0,0,0-2.37,3.09,23.3,23.3,0,0,1,.33,3.1c0,8.79-.05,17.58.05,26.36,0,4.14,2.16,7.52,6.25,8.65,6.92,1.9,13.19.1,19-3.76,3.61-2.42,5.16-5.87,5-10.31-.21-6.7-.06-13.42-.06-20.12a18.47,18.47,0,0,1,.07-4.08,2.77,2.77,0,0,0-1.28-3.24,3.45,3.45,0,0,0-4.22.45c-.66.53-.73,2-.84,3-.08.85.28,1.72.28,2.59,0,7-.09,14,.07,21,.07,2.81-.55,4.92-3,6.61a15.72,15.72,0,0,1-10.75,3.26c-3.06-.28-4.81-2-4.66-5.14C318.7,192.82,318.54,188.36,318.54,183.91Zm257.71-14.28c1.89.13,3.76.32,4.17,2.38a7.65,7.65,0,0,1-1.64,6.71c-3.34,4-7.81,5.76-12.7,6.56-2.16.36-4.55.48-6.08-1.74-.48-.7-.73-1.56-1.21-2.27-.73-1.08-1.51-2.25-3.09-2a2.79,2.79,0,0,0-2.36,2.86,6.94,6.94,0,0,0,1.22,3.61c2.07,3.05,5.39,3.95,8.77,4.05a26.15,26.15,0,0,0,10.86-2.06c6.08-2.55,10.79-6.27,12.21-13.19a7.88,7.88,0,0,0-5.88-8.87c-3.43-.69-6.73,0-10,.64-2.31.46-4.54,1.36-6.85,1.71-1.28.2-3.07.07-3.89-.7s-.62-2.54-.27-3.69c1.55-5.19,8.34-8.6,13.87-7.47,1.34.27,2.63.56,3.12,2.29.31,1.12,3.43,1.58,4.44.86,1.28-.91,1.28-2.6.09-4a11.42,11.42,0,0,0-8.67-3.82,20.69,20.69,0,0,0-11.56,3.26c-3.69,2.2-6.63,5.19-7.51,9.59-.77,3.81.64,6.94,3.91,8a15.24,15.24,0,0,0,8.12-.15Zm117-1.55c-.17-1.33-.32-2.66-.49-4-.5-4-1.47-7.56-4.67-10.45-4.47-4-9.8-3.83-14.4-1.64-5,2.4-8.07,7-10.52,11.65a23,23,0,0,0-2.41,15.22c.75,3.93,2.32,7.37,5.86,9.51a13.6,13.6,0,0,0,9,1.62c7-.8,11.39-5.08,14.8-10.53C692.47,176.13,693.11,172.12,693.21,168.08Zm-61.43-.76c0-4,0-8.09,0-12.14,0-1.36-.12-2.68-1.56-2.94a6.24,6.24,0,0,0-3.56.48c-1,.46-1.15,1.62-.65,2.77a4.25,4.25,0,0,1,.13,1.57c0,3,.05,6.06,0,9.09a10.24,10.24,0,0,1-.64,2.62c-.35,1.19-.72,2.35.24,3.47a1.81,1.81,0,0,1,.41,1.09c0,3.86.05,7.72,0,11.57,0,.87-.53,1.77-.41,2.6.21,1.54,2,2.37,3.81,2,1.56-.28,2.31-1.72,2.27-3.4-.11-4.64,0-9.28,0-13.95l17.49-1q-.45,7.65-.91,15.29a2.61,2.61,0,0,0,0,.84,3.6,3.6,0,0,0,4.3,2.09c2.06-.39,2.5-1.36,2-3.57a7.64,7.64,0,0,1-.09-1.59c0-5.1-.05-10.21,0-15.32.06-4.78.24-9.55.32-14.33a2.55,2.55,0,0,0-.41-1.47,4,4,0,0,0-4.77-.82c-1.4.79-1.16,2.17-1.1,3.46.16,3.51.31,7,.47,10.55Zm-107.3,17.32c2.09-2.52,4.16-5,6.25-7.51q5-5.91,10-11.79c1.44-1.69,3-3.31,4.37-5a44.84,44.84,0,0,0,4.45-5.7c1.1-1.88-.1-3.49-2.33-3.47-1.34,0-2.67.27-4,.32-4,.15-7.91.25-11.86.37a5,5,0,0,0-.87.07,7.51,7.51,0,0,1-5.11-.27,3.5,3.5,0,0,0-2.72.58,4.79,4.79,0,0,0-2,4.25c0,1.29.05,2.63,1.45,3.07a2.7,2.7,0,0,0,3.44-1.71c.45-1.06,1.13-1.06,2.05-1.11,3.45-.18,6.9-.47,10.35-.67,1.43-.08,2.87,0,4.59,0-2.26,2.68-4.23,5.06-6.25,7.4s-4,4.38-5.87,6.64c-2.7,3.2-5.32,6.48-8,9.71-1.36,1.64-2.82,3.2-4.13,4.88s-1.14,4,.17,4.46a9.05,9.05,0,0,0,3.37.71c3.45-.11,6.89-.54,10.35-.64,4.27-.11,8.54,0,12.81,0,2.6,0,3.52-.71,4.06-3.12.47-2.06-.51-4.3-2.13-4.88-1.38-.49-2.78.47-3.84,2.48a2.17,2.17,0,0,1-1.28.86,7.8,7.8,0,0,1-1.94.1Zm221.95-9c1.79-.59,2.86.63,3.57,2.55.44,1.18,1.15,2.28,1.54,3.48.59,1.76,1.7,3.47.8,5.49a1.48,1.48,0,0,0,.29,1.12,3.65,3.65,0,0,0,4.4,1,3,3,0,0,0,1.81-3.87,46.9,46.9,0,0,0-4-9.24c-3-5.35-5.61-11-8.18-16.61-.91-2-2.24-4-1.31-6.43.16-.43-.51-1.46-1.06-1.81a3.41,3.41,0,0,0-5.21,2c-.29.93-.36,1.93-.73,2.82-.88,2.07-1.85,4.11-2.85,6.13-2,4-4,8.08-6,12.11s-4,7.73-5.78,11.69a3.23,3.23,0,0,0,.73,2.76c1.2,1.31,2.81.74,4.24.22a2,2,0,0,0,1.51-2.09,9.23,9.23,0,0,1,.44-3.6,66.63,66.63,0,0,1,3.11-6.21,1.54,1.54,0,0,1,1-.76C738.48,176.1,742.22,175.87,746.43,175.6Zm23.26-7.07c0-4.34.06-8.67,0-13,0-2.8-1.25-3.32-3.27-3.27s-2.72,1.2-2.35,3.6a8.4,8.4,0,0,1,0,1.42c0,7.9.09,15.8,0,23.69-.09,6.19,3.92,8.94,9.29,9.25a19.93,19.93,0,0,0,14-4.3c2.48-2,4.18-4.45,4.13-7.91-.1-7.19,0-14.37,0-21.56a18.07,18.07,0,0,0,.2-2.72,2.66,2.66,0,0,0-3.36-2.21c-1.88.43-2.76,1.63-2.46,3.39a10.2,10.2,0,0,1,.33,1.7c0,7.24,0,14.49,0,21.73a3.26,3.26,0,0,1-.54,2,13.51,13.51,0,0,1-12.09,5,3.81,3.81,0,0,1-3.86-4.28C769.8,176.84,769.69,172.68,769.69,168.53ZM705.19,174c4-1.36,7.81-2.48,11.48-4a17.6,17.6,0,0,0,9.87-8.93c2-4.42-.13-8.12-4.12-8.89A22.84,22.84,0,0,0,709,153.94c-1.2.5-2.41,1-3.62,1.44a2.49,2.49,0,0,1-.15-.47c-.18-2-1.4-3-3.36-2.7a3.06,3.06,0,0,0-2.39,3.68c.24,1.26.36,2.49-.85,3.55-1,.86-.71,3.07.11,4.07a3.42,3.42,0,0,1,.82,1.88q.09,9,0,18a9.26,9.26,0,0,1-.61,2.81,2.67,2.67,0,0,0,2.09,3.3,11.56,11.56,0,0,0,3.45-.33c.42-.08,1-.67,1-1,0-1.15-.28-2.3-.3-3.45C705.16,181,705.19,177.42,705.19,174ZM97.8,207a7.63,7.63,0,0,0,1.07,0c2.41-.35,3.76-2,3.23-3.81a11.38,11.38,0,0,1-.55-3.05c-.06-4.09,0-8.19,0-12.29a3.53,3.53,0,0,1,.45-2,64,64,0,0,1,4.8-5.59c3.13-3.16,6.48-6.11,9.54-9.34a7,7,0,0,0,1.73-3.95c0-.7-1.33-1.81-2.28-2.21-1.21-.5-2.39.19-3.23,1.24-1.87,2.34-3.62,4.78-5.64,7-2.45,2.69-5.17,5.12-7.65,7.79-.7.75-.73.84-1.45,0-2.86-3.28-5.93-6.38-8.8-9.65a23.1,23.1,0,0,1-2.9-4.27,3.82,3.82,0,0,0-5.24-1.62c-1.86,1.07-2.5,3.05-1.24,4.57,1.66,2,3.47,3.9,5.32,5.75,2.42,2.42,5,4.67,7.4,7.12,1.86,1.9,3.21,4,2.9,7-.28,2.7,0,5.46-.09,8.19a33.28,33.28,0,0,1-.67,5.16C94,205.44,95.26,207,97.8,207Zm492.64-31.68a42.5,42.5,0,0,0,.84,5.59c1.75,6.47,5.32,9.25,11.93,9.23A19.73,19.73,0,0,0,611,188c3.14-1.45,6.2-3.3,7.59-6.78a2.48,2.48,0,0,0-.11-2.17,5.37,5.37,0,0,0-2.85-1.51c-1.46-.17-2,1.17-2.64,2.31a7.54,7.54,0,0,1-1.78,2.64,20.59,20.59,0,0,1-4.27,2.22,7.61,7.61,0,0,1-9.94-3.81,14.88,14.88,0,0,1-.58-10.94,45.91,45.91,0,0,1,5.06-10,8.73,8.73,0,0,1,8.82-3.92c1.34.19,2.92.33,3.36,2a2.54,2.54,0,0,0,2.56,2.17,4.31,4.31,0,0,0,2.88-1.76,2.88,2.88,0,0,0-.73-3.51c-2.55-2.64-5.88-3.16-9.25-3.42-4.85-.37-8.69,2-11.77,5.36C592.72,161.89,590.79,168.1,590.44,175.32ZM297.6,186.2c0,4.57,0,9.14,0,13.71a8.47,8.47,0,0,1-.44,2.37c-.46,1.5-.54,2.85.88,3.94a4.42,4.42,0,0,0,5.2-.11c1.33-1.09,1.33-2.46.65-4a4.7,4.7,0,0,1-.28-1.87q0-13.71,0-27.42a6.26,6.26,0,0,1,.64-2.65,3.26,3.26,0,0,0-.78-4c-1.19-1.25-3.4-1.17-5-.07a3.75,3.75,0,0,0-1.5,3.86,37,37,0,0,1,.64,3.69C297.65,177.9,297.6,182.05,297.6,186.2Z" transform="translate(-0.36 -0.36)"/><path class="cls-2" d="M.36,152.52V.36H564.11a17.9,17.9,0,0,0-.65,2.86,33.43,33.43,0,0,0,0,4.8,2.81,2.81,0,0,1-1.36,2.67c-1.61,1.14-3.23,2.26-4.79,3.47-3.29,2.54-6.53,5.14-9.8,7.69-3.65,2.83-7.34,5.62-11,8.46-1.37,1.08-1.24,2,.35,2.76s3.06,1.47,4.57,2.25c.36.19.82.57.89.92a20.6,20.6,0,0,1,.4,3.66c0,9.09,0,18.18,0,27.26,0,.63-.07,1.25-.1,1.87H473.22c0-3.73,0-7.34,0-10.94a1.73,1.73,0,0,1,.39-.94c1.16-1.54,2.33-3.08,3.52-4.6,1.62-2.08,1.53-2.46-.68-4.06-6-4.31-11.93-8.58-17.79-13a11,11,0,0,0-7.21-2.39c-17.64.14-35.28,0-52.91.15A16.57,16.57,0,0,1,390.41,31c-.62-.33-1.19-.75-1.82-1.05-5.09-2.47-10.21-4.89-15.29-7.39-6.51-3.19-13-6.47-19.48-9.64a2.85,2.85,0,0,0-2.18-.1q-9.48,4.53-18.87,9.22c-6.9,3.44-13.74,7-20.64,10.42a7,7,0,0,1-3,.71c-17.34,0-34.68,0-52,0a5,5,0,0,0-2.22.35c-4.41,2.37-8.79,4.81-13.16,7.25q-6.18,3.43-12.34,6.92c-1.21.69-2.41,1.41-3.56,2.2-1,.65-.62,1.51.06,2.06,1.73,1.38,3.51,2.71,5.35,3.95,2.17,1.48,3.47,3.07,3.38,6.1-.28,9.38-.1,18.77-.1,28.15v2H165.68a28.19,28.19,0,0,0,0-4.23c-.54-3.43.56-5.74,3.83-7.24,2-.92,2-1.71.36-3.29-1.9-1.86-3.92-3.59-5.77-5.5-3-3.14-5.93-6.4-8.94-9.57-3.28-3.46-6.59-6.9-10-10.26a4.56,4.56,0,0,0-3.4-1.49c-21.2.07-42.4.12-63.6,0a8.37,8.37,0,0,0-6.43,2.65Q61.33,63.45,50.91,73.65c-1.77,1.73-3.62,3.38-5.46,5a1.54,1.54,0,0,0,.34,2.53c1.42.66,2.8,1.41,4.23,2a2.62,2.62,0,0,1,1.7,2.85c-.17,16.61-.26,33.22-.38,49.83,0,1.6-.08,3.21,0,4.81S50.84,143,49.23,143a43.42,43.42,0,0,0-5.09.38c-3.84.43-7.66.94-11.5,1.37-2.68.3-5.38.48-8.06.76-4.07.44-8.14.93-12.21,1.39-2.33.26-4.68.38-7,.76C2.63,148.07,1.4,150.24.36,152.52Z" transform="translate(-0.36 -0.36)"/><path class="cls-3" d="M.36,152.52c1-2.28,2.27-4.45,5-4.91,2.31-.38,4.66-.5,7-.76,4.07-.46,8.14-.95,12.21-1.39,2.68-.28,5.38-.46,8.06-.76,3.84-.43,7.66-.94,11.5-1.37a43.42,43.42,0,0,1,5.09-.38c1.61,0,2.25-.59,2.14-2.21s0-3.21,0-4.81c.12-16.61.21-33.22.38-49.83A2.62,2.62,0,0,0,50,83.25c-1.43-.62-2.81-1.37-4.23-2a1.54,1.54,0,0,1-.34-2.53c1.84-1.66,3.69-3.31,5.46-5Q61.34,63.45,71.72,53.2a8.37,8.37,0,0,1,6.43-2.65c21.2.15,42.4.1,63.6,0a4.56,4.56,0,0,1,3.4,1.49c3.38,3.36,6.69,6.8,10,10.26,3,3.17,5.91,6.43,8.94,9.57,1.85,1.91,3.87,3.64,5.77,5.5,1.61,1.58,1.66,2.37-.36,3.29-3.27,1.5-4.37,3.81-3.83,7.24a28.19,28.19,0,0,1,0,4.23h68.83v-2c0-9.38-.18-18.77.1-28.15.09-3-1.21-4.62-3.38-6.1-1.84-1.24-3.62-2.57-5.35-3.95-.68-.55-1-1.41-.06-2.06,1.15-.79,2.35-1.51,3.56-2.2q6.17-3.48,12.34-6.92c4.37-2.44,8.75-4.88,13.16-7.25a5,5,0,0,1,2.22-.35c17.34,0,34.68,0,52,0a7,7,0,0,0,3-.71c6.9-3.43,13.74-7,20.64-10.42q9.39-4.69,18.87-9.22a2.85,2.85,0,0,1,2.18.1c6.51,3.17,13,6.45,19.48,9.64,5.08,2.5,10.2,4.92,15.29,7.39.63.3,1.2.72,1.82,1.05a16.57,16.57,0,0,0,8.15,2.28c17.63-.16,35.27,0,52.91-.15a11,11,0,0,1,7.21,2.39c5.86,4.43,11.84,8.7,17.79,13,2.21,1.6,2.3,2,.68,4.06-1.19,1.52-2.36,3.06-3.52,4.6a1.73,1.73,0,0,0-.39.94c0,3.6,0,7.21,0,10.94h69.44c0-.62.1-1.24.1-1.87,0-9.08,0-18.17,0-27.26a20.6,20.6,0,0,0-.4-3.66c-.07-.35-.53-.73-.89-.92-1.51-.78-3.06-1.48-4.57-2.25s-1.72-1.68-.35-2.76c3.64-2.84,7.33-5.63,11-8.46,3.27-2.55,6.51-5.15,9.8-7.69,1.56-1.21,3.18-2.33,4.79-3.47A2.81,2.81,0,0,0,563.46,8a33.43,33.43,0,0,1,0-4.8,17.9,17.9,0,0,1,.65-2.86h94.8c.34,1.8.72,3.6,1,5.41.34,2,.37,3.87,2.48,5.22,2.5,1.6,4.61,3.79,6.91,5.7,3.2,2.66,6.44,5.26,9.6,8,2.77,2.36,5.46,4.83,8.81,7.8a20.71,20.71,0,0,1-1.89,1c-1.83.75-3.71,1.39-5.49,2.23a2.29,2.29,0,0,0-1.13,1.6c-.19,7.16-.35,14.32-.38,21.48-.05,12.94,0,25.88,0,38.82v2l21.1.9c3.19.13,6.38.23,9.56.34l20.17.72,9.73.36,20.88.72c3.25.11,6.49.24,9.74.34,4.54.14,9.09.24,13.64.37q5.58.16,11.16.36a4.09,4.09,0,0,1,1,.23c2.58.74,3.65,2.84,4.55,5.09v2.13c-1.61,2.81-3.9,3.87-7.21,3.45-3.67-.47-7.4-.48-11.1-.62-7-.26-14.06-.46-21.08-.72-5.61-.21-11.21-.48-16.82-.71-6-.25-12-.47-18.06-.71l-17.35-.72-17.52-.71q-8.78-.36-17.53-.72c-1.47-.06-2.93-.21-4.4-.3-1.11-.06-1.55-.62-1.5-1.73.06-1.54,0-3.09,0-4.63,0-23.11-.09-46.21.1-69.31A8.6,8.6,0,0,0,664,26.07c-2.73-2-5.3-4.28-7.94-6.45-1.9-1.56-3.87-3.05-5.65-4.74a3.82,3.82,0,0,1-.7-2.38c-.06-1-.32-1.49-1.44-1.49q-36.62,0-73.23,0a2.05,2.05,0,0,0-.34.07c-.07.09-.22.2-.21.27,1,4.26-2.79,5.16-5.08,7-3.22,2.67-6.53,5.23-9.83,7.79-1.48,1.16-3.12,2.12-4.51,3.36a3.76,3.76,0,0,0-1.26,2.47q-.12,18.89,0,37.77c0,2.59.27,5.18.33,7.78,0,1.74-.59,2.22-2.35,2.21q-14.43,0-28.86,0H464.27c-2.35,0-2.41-.05-2.41-2.39,0-7.24,0-14.49,0-21.74a3.77,3.77,0,0,1,.68-2,1.36,1.36,0,0,0-.35-2.21c-3.22-2.29-6.41-4.61-9.7-6.8a5.29,5.29,0,0,0-2.78-.77c-17.7-.05-35.4-.13-53.1,0a19.93,19.93,0,0,1-9.41-2.4l-19.32-9.64c-4.57-2.27-9.19-4.47-13.72-6.83a3.19,3.19,0,0,0-3.27,0c-4.36,2.22-8.74,4.4-13.12,6.6Q326,37.57,314.12,43.48a3.47,3.47,0,0,1-1.49.32q-24.58,0-49.17,0c-2.53,0-5-.09-7.32,1.39-3.87,2.42-7.94,4.51-12.23,6.9,2.68,1.78,1.84,4.29,2,6.56v.18q-.18,21.09-.35,42.17c0,1.58-.61,2-2.13,2q-17.29-.07-34.57,0c-17.2.08-34.41.22-51.62.33-2.49,0-2.52-.15-2.54-2.55-.06-7.46-.1-14.93-.46-22.38-.06-1.24-1.53-2.52-2.56-3.59-3-3.1-6.09-6.1-9.14-9.15-1.2-1.2-2.36-2.46-3.61-3.6a2.33,2.33,0,0,0-1.45-.39c-19.19,0-38.37,0-57.55,0-1.75,0-2.41,1.38-3.36,2.33-3.31,3.31-6.41,6.84-9.81,10a11.22,11.22,0,0,0-3.78,9c.12,16.73-.11,33.46-.25,50.19,0,5.86-.25,11.71-.34,17.57,0,1.16-.39,1.67-1.63,1.79-5.13.53-10.24,1.2-15.37,1.74s-10.06.92-15.07,1.47c-5.88.64-11.75,1.4-17.63,2.1-2.15.26-4.31.52-6.46.72a5.34,5.34,0,0,1-5-2.42c-.27-.38-.55-.74-.83-1.11Z" transform="translate(-0.36 -0.36)"/><path class="cls-2" d="M800.38,109.05c-.9-2.25-2-4.35-4.55-5.09a4.09,4.09,0,0,0-1-.23q-5.58-.2-11.16-.36c-4.55-.13-9.1-.23-13.64-.37-3.25-.1-6.49-.23-9.74-.34l-20.88-.72-9.73-.36-20.17-.72c-3.18-.11-6.37-.21-9.56-.34l-21.1-.9v-2c0-12.94,0-25.88,0-38.82,0-7.16.19-14.32.38-21.48a2.29,2.29,0,0,1,1.13-1.6c1.78-.84,3.66-1.48,5.49-2.23a20.71,20.71,0,0,0,1.89-1c-3.35-3-6-5.44-8.81-7.8-3.16-2.69-6.4-5.29-9.6-7.95-2.3-1.91-4.41-4.1-6.91-5.7-2.11-1.35-2.14-3.26-2.48-5.22-.32-1.81-.7-3.61-1-5.41H800.38Z" transform="translate(-0.36 -0.36)"/><path class="cls-4" d="M5.35,227.36c-2.89-1.7-3.61-6.05-1.12-7.62a7.46,7.46,0,0,1,3.85-.87q26.1-.08,52.21,0H442.81a31,31,0,0,0,4.91-.42,4.34,4.34,0,0,0,3.69-3.35,39.61,39.61,0,0,0,.53-6.38c.05-.76-.11-1.54,0-2.31.37-3.77-.86-5.16-4.89-6.78a15.15,15.15,0,0,0-5.65-1.05,29.25,29.25,0,0,1-22.15-9.5c-1.76-1.86-2.54-4.84-3.23-7.46a33.35,33.35,0,0,1-.78-7.69c-.11-4.8,2.21-7.08,6.94-7.07,1.06,0,2.12.11,3.18.17.18,0,.41.08.53,0,1.68-1.21,3.38-2.41,5-3.72.31-.25.3-1,.35-1.49a30,30,0,0,1,.45-4.37c.17-.68,1.08-1.18,1.67-1.75.22-.22.47-.42.7-.62a4.87,4.87,0,0,0-.71-.58c-1.73-1-3.46-2-5.22-2.91s-1.81-2.47-1.79-3.9c0-2.76.05-5.5,1.75-8a9.77,9.77,0,0,1,8.13-4.51,3.42,3.42,0,0,0,3.18-3,1.64,1.64,0,0,0-.6-1c-.67-.58-1.39-1.1-2.11-1.62-2.46-1.78-2.84-3.15-1.58-5.88,1.87-4.06,5.26-6.52,9.13-8.37.78-.38,1.86-.15,2.94-.2-.08-1.44-.22-2.82-.23-4.2a4.56,4.56,0,0,1,5.93-4.25,5.55,5.55,0,0,0,1.86.55c1.1-.07,2.73,0,3.21-.65,2.64-3.62,8.08-4,11.53-1.73a58,58,0,0,1,5.84,4.25c.84.71,1.22,2,1.86,2.93.53.8,1,2,1.75,2.25,2.39,1,2.81,3,3.22,5.06a4.67,4.67,0,0,1,.12,1.23c-.22,3.08,2.54,3.6,4.3,4.88,1.93,1.4,3.47,2.95,3.85,5.4.21,1.37,1.37,1.29,2.28,1.43a16.72,16.72,0,0,1,10.19,5.88c2,2.31,1.54,5.4,1.21,8.19-.08.63-1.64,1.13-2.57,1.59a7.81,7.81,0,0,1-1.89.29c.53.66.78,1.22,1.2,1.45,3.1,1.72,3.8,3.22,2.85,6.68-.65,2.36-1.38,4.7-2.08,7.05,0,.06-.08.12-.07.16.58,3.09-1.44,5.43-2.4,8.06a2.74,2.74,0,0,1-2,1.23,15.41,15.41,0,0,1-3.38-.31c-.39,1.39-.38,2.48,1.17,3.2,5.29,2.46,4.56,7.18,2.63,10.91-2.75,5.3-7.54,7.89-13.24,8.87-.74.13-1.64-.71-2.49-1a12.85,12.85,0,0,0-3.63-1.29c-2.3-.15-3.73,1.2-4.25,3.44a48.66,48.66,0,0,0-1.36,6.47c-.22,2.42.15,2.62,2.58,2.62q94.58-.18,189.15-.34,63.16-.08,126.33,0H791c4,0,6,2.58,4.55,6.34-.37,1-1.89,1.51-2.95,2.12-.36.2-.93,0-1.41,0H478.65c-3.71,0-6.53-2.07-9.28-4.18-.42-.33-.28-1.33-.52-2a38.68,38.68,0,0,0-2.3-5.69c-1.36-2.41-1.89-4.53.21-6.83a11.14,11.14,0,0,0,1.51-3.14c1.24-2.78,6-4.46,8.77-3.09a.83.83,0,0,1,.16.09c3.3,2.48,6,1.1,9-.95,2.72-1.87,4.78-4,5.44-7.27a16.41,16.41,0,0,0,.12-3.71c0-.31-.37-.68-.67-.9a7.84,7.84,0,0,0-1.26-.64c-3.17-1.62-3.7-2.51-3.31-6.08.05-.46.74-1,1.25-1.22a3.12,3.12,0,0,1,1.72.23c1.63.47,2.5-.12,3.06-1.72s1.65-2.76,2-4.25c.53-2.08.48-4.31.95-6.42s1.27-3.88,2-6a5.17,5.17,0,0,0-1.54-.35c-3.07.25-5.35-1.33-7.66-3a1.89,1.89,0,0,1-.5-2.75c.19-.33,1.39-.16,2.12-.1,1.56.12,3.15.61,4.66.41,2.32-.32,3.63-2.83,3.24-5.58-.12-.8-.29-1.59-.48-2.61-1.48.15-3.13,0-4.45.53-2.84,1.22-4.5-.82-6.51-1.89a3.65,3.65,0,0,1-1.75-3c-.29-2-.74-4-1.06-5.66-2.62-1.44-5.28-2.5-7.39-4.24-.95-.78-.86-2.88-1.12-4.4-.14-.81.17-1.73-.08-2.47a9.44,9.44,0,0,0-1.56-2.74c-.65-.82-1.75-1.33-2.22-2.21-1.32-2.45-3.2-2.88-5.38-.84a7.42,7.42,0,0,1-4.93,2.07c-1.27,0-2.55-.3-3.82-.32C454,110.74,453,112.1,454,115a8.58,8.58,0,0,1,.35,2.42c0,1.37-.43,2.21-2.13,2-4.86-.58-7,3.14-9.43,6.25a12.67,12.67,0,0,0-.83,1.36c-1.38,2.33-.9,3.9,1.49,5.18,1.25.67,2.44,1.49,3.61,2.22a11.48,11.48,0,0,0-1.26,2.25c-.59,2.26-2.39,2.27-4.19,2.73a19.63,19.63,0,0,0-6.25,2.56c-2.65,1.82-2.2,4.67-1.54,7.42a2.85,2.85,0,0,0,2,2.33,23.3,23.3,0,0,1,4.95,3c1.34.94,1.11,3.71-.39,4.38a3.74,3.74,0,0,0-2.38,4.3,4.56,4.56,0,0,1-2.76,5.12,2.78,2.78,0,0,0-1.15,1c-1.26,2-2.31,2.41-4.75,1.93-4.8-.95-5.87-.33-6.88,4.28a18.28,18.28,0,0,0,2.37,14.4,2.18,2.18,0,0,0,1.43,1c2.1.12,4.21,0,6.31.09a38.89,38.89,0,0,1,6.11.71c4.9,1.09,9.9,2,14.27,4.65a57.38,57.38,0,0,1,5.83,4.24,2.8,2.8,0,0,1,.58,1.93c0,2.83-.18,5.66-.29,8.48s-.06,5.85-.41,8.73c-.44,3.49-2.79,5.56-5.95,6.8a15.81,15.81,0,0,0-1.49.73Z" transform="translate(-0.36 -0.36)"/><path class="cls-5" d="M158.32,180.35l-5.58,9.11c-1.34,2.19-2.71,4.35-4,6.55a24,24,0,0,0-3.41,8.63c-.22,1.42-1.44,2-2.89,2-1.86,0-3.67-1-3.69-2.5a15.82,15.82,0,0,0-1.92-6.47c-2.73-6-5.79-11.88-8.72-17.81l-.66.21c.15,1.47.43,2.93.44,4.39.06,5.35,0,10.69,0,16a4.81,4.81,0,0,0,.29,1.69c.56,1.39.79,2.77-.34,3.92s-3.85,1.26-5.14.43-1.24-2.3-1.14-3.66c.07-1.11.32-2.2.32-3.3,0-10.1,0-20.19,0-30.28,0-3.22,2.17-4.76,5.13-3.52.61.26,1.42.95,1.49,1.51.43,3.68,2.39,6.71,4,9.88,1,1.9,2.2,3.67,3.23,5.54,2.32,4.2,5.35,8,6.32,12.91.06.28.39.51.66.85,1.78-5.56,5-10.15,8.23-14.75,1.4-2,2.91-4,4.22-6a11,11,0,0,0,2-7.44,2.37,2.37,0,0,1,2.26-2.8,4.84,4.84,0,0,1,5.25,2.15,2.68,2.68,0,0,1,.18,1.67,23.17,23.17,0,0,0-.62,2.88q-.08,14.25,0,28.49c0,.67.56,1.35.54,2a5.33,5.33,0,0,1-.57,2.78c-1.11,1.64-4.12,2.2-5.56,1a3.35,3.35,0,0,1-1-2.41c0-1.72.54-3.44.58-5.16.09-4.15,0-8.31,0-12.46,0-2,.31-4,.48-5.95Z" transform="translate(-0.36 -0.36)"/><path class="cls-6" d="M388.63,180.2c-2.93,4.91-5.95,9.76-8.75,14.74a87.09,87.09,0,0,0-3.74,8.15c-.29.66-.16,1.52-.47,2.17-.53,1.09-3.05,1.85-4.45,1.31a3.57,3.57,0,0,1-2.39-2.95,30.61,30.61,0,0,0-1.72-6.66c-1.53-3.61-3.35-7.1-5.2-10.56a43.87,43.87,0,0,0-4.27-6.32c.15,1.4.42,2.79.44,4.19.05,5.34,0,10.68,0,16,0,.79.4,1.57.41,2.36,0,1.11.22,2.57-.38,3.26a3.38,3.38,0,0,1-4.46.65,3.66,3.66,0,0,1-1.5-2.6c0-11.79.17-23.57.3-35.36a3,3,0,0,1,3.07-3.22c1.78-.17,2.91.75,3.26,2.77.6,3.48,2.74,6.23,4.4,9.19,3.39,6,7.28,11.81,9.26,18.55,0,.15.25.24.38.37,2.95-6.59,7.23-12.34,11.11-18.34,2-3.11,3.85-6.17,3.5-10.15-.13-1.5,1.43-2.16,2.72-2.35,3.67-.54,5.16,1.06,4.63,4.73a8.56,8.56,0,0,0,0,1.24c0,9.74,0,19.47,0,29.21,0,1.16.24,2.32.33,3.48a2.18,2.18,0,0,1-1.52,2.46c-1.59.59-3.21.79-4.64-.3-1-.76-1-1.83-.55-3a5.82,5.82,0,0,0,.37-2.2c0-4.16,0-8.31,0-12.47,0-2.23.25-4.46.36-6.69,0-.49,0-1,0-1.49Z" transform="translate(-0.36 -0.36)"/><path class="cls-6" d="M200.1,194.82c-.19-1.94-.47-3.5-.48-5.06-.05-6.42,0-12.83,0-19.24a5.61,5.61,0,0,0-.34-1.86,2.61,2.61,0,0,1,1.48-3.66,4,4,0,0,1,4.53.75c.57.52.31,2,.38,3,0,.53-.06,1.06-.06,1.59V201.7c0,.53-.15,1.2.11,1.56.72,1,1.15,2.34.05,2.92a6.93,6.93,0,0,1-4.09.47c-.81-.14-1.57-1.21-2.12-2-2.72-4-5.19-8.1-8.09-11.91-2.57-3.36-5.64-6.33-8.37-9.58a43.54,43.54,0,0,1-3-4.66,4.84,4.84,0,0,0-.22.95c.13,7.1.26,14.2.43,21.3,0,1.45.28,2.9.33,4.35s-1,1.79-2.09,1.87a9.11,9.11,0,0,1-3.11-.35c-1.69-.47-2.21-1.85-1.61-3.58a8.09,8.09,0,0,0,.47-2.53q0-14,0-28a17.44,17.44,0,0,0-.34-2.95c-.54-3.05,2-5.08,5.24-4,.7.24,1.63,1,1.72,1.62.58,4.18,2.65,7.66,5.17,10.82,2.7,3.42,5.81,6.51,8.64,9.83C196.51,190,198.11,192.23,200.1,194.82Z" transform="translate(-0.36 -0.36)"/><path class="cls-6" d="M69.7,187.64c-2.45.51-4.56,1-6.7,1.39a28.1,28.1,0,0,1-4,.49c-1.78.07-2.6-.7-2.67-2.26a2.59,2.59,0,0,1,2.36-2.95c4.59,0,9-1.21,13.39-2.14,3-.62,4.69,1.32,4.07,4.33a28,28,0,0,1-5.63,11.81,23.75,23.75,0,0,1-16.42,9.11c-4.13.54-8,.25-11.58-1.93-3.83-2.32-5.36-6.13-6.13-10.28a22.64,22.64,0,0,1,1.73-13.8,25.11,25.11,0,0,1,7.32-9.87c3.7-2.81,7.61-5.37,12.26-6.55,4.42-1.11,8.73-1,12.54,1.58a12.34,12.34,0,0,1,3.4,4.53c.66,1.27-.62,2.12-1.64,2.44a6.4,6.4,0,0,1-3,0c-.44-.08-.83-.66-1.14-1.08a7,7,0,0,0-8.06-3c-5.5,1.34-9.58,4.73-13.11,8.92-4.84,5.77-5.5,12.34-3.19,19.22a8.39,8.39,0,0,0,9.16,5.24,18.44,18.44,0,0,0,8.85-3.19C65.42,196.64,68.45,193,69.7,187.64Z" transform="translate(-0.36 -0.36)"/><path class="cls-6" d="M265.44,207.73a13.44,13.44,0,0,1-9.69-3.59,5.56,5.56,0,0,1-1.95-5.56,3.25,3.25,0,0,1,2.8-2.55,2.65,2.65,0,0,1,3,1.82,19.23,19.23,0,0,0,1.54,2.91c1.48,2.09,3.72,2.32,6,2a23.53,23.53,0,0,0,14-6.6,8.46,8.46,0,0,0,2.88-6.89c-.15-2.28-1.41-3.84-3.76-3.62-3.51.31-7,1-10.49,1.5-2.69.41-5.37,1-8.07,1.22a15.25,15.25,0,0,1-4.54-.9c-3.21-.85-4.21-5.51-3.68-8.21,1-4.95,4.45-8,8.29-10.6a21.68,21.68,0,0,1,13.2-3.62,14,14,0,0,1,9.42,3.82c1.59,1.55,1.7,2.81.63,4.14s-5.07,1.27-5.62-.33c-.76-2.24-2.63-2.59-4.37-2.7-5.89-.35-10.71,1.81-14.09,6.78a5.23,5.23,0,0,0-.86,2.41c-.3,3.69,1.44,4.52,5.34,3.87,5.25-.88,10.32-2.86,15.74-2.68,6.16.2,10,4.07,8.9,11-.89,5.38-4.05,8.92-8.38,11.62A32.31,32.31,0,0,1,265.44,207.73Z" transform="translate(-0.36 -0.36)"/><path class="cls-6" d="M222.15,192.1c-1.24,2.45-2.61,4.82-3.64,7.34a12.17,12.17,0,0,0-.76,4.57c0,1.79-1.19,2.19-2.41,2.72a3.74,3.74,0,0,1-4.1-.56,2.54,2.54,0,0,1-.69-3.17c2.31-4.55,4.57-9.12,6.85-13.69,2.15-4.3,4.18-8.66,6.47-12.89,1.62-3,3.31-6,3.86-9.38.47-2.86,4.64-3.54,6.59-1.59a1.71,1.71,0,0,1,.44,1.4c-1,2.57.4,4.67,1.37,6.76a153.7,153.7,0,0,0,7,13.94A76.15,76.15,0,0,1,249.54,202a3.68,3.68,0,0,1-1.1,4.27,4.43,4.43,0,0,1-5.37-.18,2.08,2.08,0,0,1-.65-1.7c.91-2.59-.37-4.77-1.18-7A29,29,0,0,0,239,192.5a2.5,2.5,0,0,0-1.83-1.12C232.13,191.54,227.14,191.84,222.15,192.1Zm2.23-4.87,11.9-.84-5.4-11.87c-1.2,2.31-2.23,4.25-3.22,6.19S225.59,184.83,224.38,187.23Z" transform="translate(-0.36 -0.36)"/><path class="cls-6" d="M318.54,183.91c0,4.45.16,8.91-.05,13.35-.15,3.13,1.6,4.86,4.66,5.14a15.72,15.72,0,0,0,10.75-3.26c2.4-1.69,3-3.8,3-6.61-.16-7,0-14-.07-21,0-.87-.36-1.74-.28-2.59.11-1,.18-2.47.84-3a3.45,3.45,0,0,1,4.22-.45,2.77,2.77,0,0,1,1.28,3.24,18.47,18.47,0,0,0-.07,4.08c0,6.7-.15,13.42.06,20.12.14,4.44-1.41,7.89-5,10.31-5.77,3.86-12,5.66-19,3.76-4.09-1.13-6.21-4.51-6.25-8.65-.1-8.78,0-17.57-.05-26.36a23.3,23.3,0,0,0-.33-3.1,3.34,3.34,0,0,1,2.37-3.09,3.08,3.08,0,0,1,3.57,1.83,7.28,7.28,0,0,1,.37,2.22C318.56,174.53,318.54,179.22,318.54,183.91Z" transform="translate(-0.36 -0.36)"/><path class="cls-6" d="M576.25,169.63l-11,2.55a15.24,15.24,0,0,1-8.12.15c-3.27-1-4.68-4.14-3.91-8,.88-4.4,3.82-7.39,7.51-9.59a20.69,20.69,0,0,1,11.56-3.26,11.42,11.42,0,0,1,8.67,3.82c1.19,1.4,1.19,3.09-.09,4-1,.72-4.13.26-4.44-.86-.49-1.73-1.78-2-3.12-2.29-5.53-1.13-12.32,2.28-13.87,7.47-.35,1.15-.41,3.05.27,3.69s2.61.9,3.89.7c2.31-.35,4.54-1.25,6.85-1.71,3.3-.66,6.6-1.33,10-.64a7.88,7.88,0,0,1,5.88,8.87c-1.42,6.92-6.13,10.64-12.21,13.19a26.15,26.15,0,0,1-10.86,2.06c-3.38-.1-6.7-1-8.77-4.05a6.94,6.94,0,0,1-1.22-3.61,2.79,2.79,0,0,1,2.36-2.86c1.58-.29,2.36.88,3.09,2,.48.71.73,1.57,1.21,2.27,1.53,2.22,3.92,2.1,6.08,1.74,4.89-.8,9.36-2.6,12.7-6.56a7.65,7.65,0,0,0,1.64-6.71C580,170,578.14,169.76,576.25,169.63Z" transform="translate(-0.36 -0.36)"/><path class="cls-6" d="M693.21,168.08c-.1,4-.74,8-2.84,11.39-3.41,5.45-7.81,9.73-14.8,10.53a13.6,13.6,0,0,1-9-1.62c-3.54-2.14-5.11-5.58-5.86-9.51a23,23,0,0,1,2.41-15.22c2.45-4.68,5.48-9.25,10.52-11.65,4.6-2.19,9.93-2.39,14.4,1.64,3.2,2.89,4.17,6.5,4.67,10.45C692.89,165.42,693,166.75,693.21,168.08Zm-6-1a38.72,38.72,0,0,0-.84-5.56c-2-7.2-7.62-8.42-12-4.55-6.33,5.62-8.93,12.91-7.63,21.4.57,3.77,3.25,7,6,7.35a10.38,10.38,0,0,0,8.5-2.85C685.47,178.86,687.06,173.77,687.18,167.05Z" transform="translate(-0.36 -0.36)"/><path class="cls-5" d="M631.78,167.32l17.33-1c-.16-3.52-.31-7-.47-10.55-.06-1.29-.3-2.67,1.1-3.46a4,4,0,0,1,4.77.82,2.55,2.55,0,0,1,.41,1.47c-.08,4.78-.26,9.55-.32,14.33-.06,5.11,0,10.22,0,15.32a7.64,7.64,0,0,0,.09,1.59c.49,2.21.05,3.18-2,3.57a3.6,3.6,0,0,1-4.3-2.09,2.61,2.61,0,0,1,0-.84q.45-7.65.91-15.29l-17.49,1c0,4.67-.07,9.31,0,13.95,0,1.68-.71,3.12-2.27,3.4-1.85.34-3.6-.49-3.81-2-.12-.83.4-1.73.41-2.6.05-3.85,0-7.71,0-11.57a1.81,1.81,0,0,0-.41-1.09c-1-1.12-.59-2.28-.24-3.47a10.24,10.24,0,0,0,.64-2.62c.08-3,0-6.06,0-9.09a4.25,4.25,0,0,0-.13-1.57c-.5-1.15-.31-2.31.65-2.77a6.24,6.24,0,0,1,3.56-.48c1.44.26,1.59,1.58,1.56,2.94C631.73,159.23,631.78,163.29,631.78,167.32Z" transform="translate(-0.36 -0.36)"/><path class="cls-6" d="M524.48,184.64h15.4a7.8,7.8,0,0,0,1.94-.1,2.17,2.17,0,0,0,1.28-.86c1.06-2,2.46-3,3.84-2.48,1.62.58,2.6,2.82,2.13,4.88-.54,2.41-1.46,3.12-4.06,3.12-4.27,0-8.54-.09-12.81,0-3.46.1-6.9.53-10.35.64a9.05,9.05,0,0,1-3.37-.71c-1.31-.5-1.42-2.85-.17-4.46s2.77-3.24,4.13-4.88c2.67-3.23,5.29-6.51,8-9.71,1.9-2.26,3.94-4.41,5.87-6.64s4-4.72,6.25-7.4c-1.72,0-3.16-.07-4.59,0-3.45.2-6.9.49-10.35.67-.92.05-1.6.05-2.05,1.11a2.7,2.7,0,0,1-3.44,1.71c-1.4-.44-1.47-1.78-1.45-3.07a4.79,4.79,0,0,1,2-4.25,3.5,3.5,0,0,1,2.72-.58,7.51,7.51,0,0,0,5.11.27,5,5,0,0,1,.87-.07c4-.12,7.91-.22,11.86-.37,1.34,0,2.67-.31,4-.32,2.23,0,3.43,1.59,2.33,3.47a44.84,44.84,0,0,1-4.45,5.7c-1.41,1.7-2.93,3.32-4.37,5q-5,5.88-10,11.79C528.64,179.61,526.57,182.12,524.48,184.64Z" transform="translate(-0.36 -0.36)"/><path class="cls-6" d="M746.43,175.6c-4.21.27-7.95.5-11.69.79a1.54,1.54,0,0,0-1,.76,66.63,66.63,0,0,0-3.11,6.21,9.23,9.23,0,0,0-.44,3.6,2,2,0,0,1-1.51,2.09c-1.43.52-3,1.09-4.24-.22a3.23,3.23,0,0,1-.73-2.76c1.79-4,3.83-7.8,5.78-11.69s4.06-8.06,6-12.11c1-2,2-4.06,2.85-6.13.37-.89.44-1.89.73-2.82a3.41,3.41,0,0,1,5.21-2c.55.35,1.22,1.38,1.06,1.81-.93,2.47.4,4.46,1.31,6.43,2.57,5.61,5.13,11.26,8.18,16.61a46.9,46.9,0,0,1,4,9.24,3,3,0,0,1-1.81,3.87,3.65,3.65,0,0,1-4.4-1,1.48,1.48,0,0,1-.29-1.12c.9-2-.21-3.73-.8-5.49-.39-1.2-1.1-2.3-1.54-3.48C749.29,176.23,748.22,175,746.43,175.6Zm-4.46-15-.58.15-5.19,11.17,10.61-.78Z" transform="translate(-0.36 -0.36)"/><path class="cls-5" d="M769.69,168.53c0,4.15.11,8.31,0,12.46a3.81,3.81,0,0,0,3.86,4.28,13.51,13.51,0,0,0,12.09-5,3.26,3.26,0,0,0,.54-2c0-7.24,0-14.49,0-21.73a10.2,10.2,0,0,0-.33-1.7c-.3-1.76.58-3,2.46-3.39a2.66,2.66,0,0,1,3.36,2.21,18.07,18.07,0,0,1-.2,2.72c0,7.19-.08,14.37,0,21.56,0,3.46-1.65,5.91-4.13,7.91a19.93,19.93,0,0,1-14,4.3c-5.37-.31-9.38-3.06-9.29-9.25.11-7.89,0-15.79,0-23.69a8.4,8.4,0,0,0,0-1.42c-.37-2.4.25-3.54,2.35-3.6s3.22.47,3.27,3.27C769.75,159.86,769.69,164.19,769.69,168.53Z" transform="translate(-0.36 -0.36)"/><path class="cls-6" d="M705.19,174c0,3.42,0,7,0,10.66,0,1.15.33,2.3.3,3.45,0,.38-.62,1-1,1a11.56,11.56,0,0,1-3.45.33,2.67,2.67,0,0,1-2.09-3.3,9.26,9.26,0,0,0,.61-2.81q.09-9,0-18a3.42,3.42,0,0,0-.82-1.88c-.82-1-1.08-3.21-.11-4.07,1.21-1.06,1.09-2.29.85-3.55a3.06,3.06,0,0,1,2.39-3.68c2-.32,3.18.66,3.36,2.7a2.49,2.49,0,0,0,.15.47c1.21-.48,2.42-.94,3.62-1.44a22.84,22.84,0,0,1,13.44-1.72c4,.77,6.15,4.47,4.12,8.89a17.6,17.6,0,0,1-9.87,8.93C713,171.52,709.18,172.64,705.19,174Zm0-5.26c1.6-.31,3-.47,4.39-.87,3.94-1.17,7.87-2.46,10.75-5.65.9-1,1.75-2.14,1.18-3.61s-2.07-1.75-3.44-1.84a19.51,19.51,0,0,0-12,3.51c-.39.24-.86.73-.87,1.12C705.15,163.75,705.19,166.11,705.19,168.74Z" transform="translate(-0.36 -0.36)"/><path class="cls-6" d="M97.8,207c-2.54,0-3.78-1.56-3.31-4a33.28,33.28,0,0,0,.67-5.16c.11-2.73-.19-5.49.09-8.19.31-3-1-5.09-2.9-7-2.39-2.45-5-4.7-7.4-7.12-1.85-1.85-3.66-3.74-5.32-5.75-1.26-1.52-.62-3.5,1.24-4.57a3.82,3.82,0,0,1,5.24,1.62,23.1,23.1,0,0,0,2.9,4.27c2.87,3.27,5.94,6.37,8.8,9.65.72.83.75.74,1.45,0,2.48-2.67,5.2-5.1,7.65-7.79,2-2.21,3.77-4.65,5.64-7,.84-1.05,2-1.74,3.23-1.24,1,.4,2.33,1.51,2.28,2.21a7,7,0,0,1-1.73,3.95c-3.06,3.23-6.41,6.18-9.54,9.34a64,64,0,0,0-4.8,5.59,3.53,3.53,0,0,0-.45,2c0,4.1-.05,8.2,0,12.29a11.38,11.38,0,0,0,.55,3.05c.53,1.8-.82,3.46-3.23,3.81A7.63,7.63,0,0,1,97.8,207Z" transform="translate(-0.36 -0.36)"/><path class="cls-7" d="M590.44,175.32c.35-7.22,2.28-13.43,6.9-18.44,3.08-3.33,6.92-5.73,11.77-5.36,3.37.26,6.7.78,9.25,3.42a2.88,2.88,0,0,1,.73,3.51,4.31,4.31,0,0,1-2.88,1.76,2.54,2.54,0,0,1-2.56-2.17c-.44-1.64-2-1.78-3.36-2a8.73,8.73,0,0,0-8.82,3.92,45.91,45.91,0,0,0-5.06,10,14.88,14.88,0,0,0,.58,10.94,7.61,7.61,0,0,0,9.94,3.81,20.59,20.59,0,0,0,4.27-2.22,7.54,7.54,0,0,0,1.78-2.64c.6-1.14,1.18-2.48,2.64-2.31a5.37,5.37,0,0,1,2.85,1.51,2.48,2.48,0,0,1,.11,2.17c-1.39,3.48-4.45,5.33-7.59,6.78a19.73,19.73,0,0,1-7.78,2.1c-6.61,0-10.18-2.76-11.93-9.23A42.5,42.5,0,0,1,590.44,175.32Z" transform="translate(-0.36 -0.36)"/><path class="cls-5" d="M297.6,186.2c0-4.15,0-8.3,0-12.46a37,37,0,0,0-.64-3.69,3.75,3.75,0,0,1,1.5-3.86c1.63-1.1,3.84-1.18,5,.07a3.26,3.26,0,0,1,.78,4,6.26,6.26,0,0,0-.64,2.65q-.06,13.71,0,27.42a4.7,4.7,0,0,0,.28,1.87c.68,1.5.68,2.87-.65,4a4.42,4.42,0,0,1-5.2.11c-1.42-1.09-1.34-2.44-.88-3.94a8.47,8.47,0,0,0,.44-2.37C297.62,195.34,297.6,190.77,297.6,186.2Z" transform="translate(-0.36 -0.36)"/><path class="cls-2" d="M224.38,187.23c1.21-2.4,2.23-4.47,3.28-6.52s2-3.88,3.22-6.19l5.4,11.87Z" transform="translate(-0.36 -0.36)"/><path class="cls-2" d="M687.18,167.05c-.12,6.72-1.71,11.81-6,15.79a10.38,10.38,0,0,1-8.5,2.85c-2.71-.3-5.39-3.58-6-7.35-1.3-8.49,1.3-15.78,7.63-21.4,4.37-3.87,10-2.65,12,4.55A38.72,38.72,0,0,1,687.18,167.05Z" transform="translate(-0.36 -0.36)"/><path class="cls-2" d="M742,160.57l4.84,10.54-10.61.78,5.19-11.17Z" transform="translate(-0.36 -0.36)"/><path class="cls-2" d="M705.19,168.74c0-2.63,0-5,0-7.34,0-.39.48-.88.87-1.12a19.51,19.51,0,0,1,12-3.51c1.37.09,2.85.29,3.44,1.84s-.28,2.61-1.18,3.61c-2.88,3.19-6.81,4.48-10.75,5.65C708.22,168.27,706.79,168.43,705.19,168.74Z" transform="translate(-0.36 -0.36)"/></svg>